<svg xmlns="http://www.w3.org/2000/svg" width="18.449" height="21.085" viewBox="0 0 18.449 21.085">
  <path id="Icon_awesome-calendar-alt" data-name="Icon awesome-calendar-alt" d="M0,19.108a1.977,1.977,0,0,0,1.977,1.977h14.5a1.977,1.977,0,0,0,1.977-1.977V7.907H0Zm13.178-8.071a.5.5,0,0,1,.494-.494h1.647a.5.5,0,0,1,.494.494v1.647a.5.5,0,0,1-.494.494H13.672a.5.5,0,0,1-.494-.494Zm0,5.271a.5.5,0,0,1,.494-.494h1.647a.5.5,0,0,1,.494.494v1.647a.5.5,0,0,1-.494.494H13.672a.5.5,0,0,1-.494-.494ZM7.907,11.037a.5.5,0,0,1,.494-.494h1.647a.5.5,0,0,1,.494.494v1.647a.5.5,0,0,1-.494.494H8.4a.5.5,0,0,1-.494-.494Zm0,5.271a.5.5,0,0,1,.494-.494h1.647a.5.5,0,0,1,.494.494v1.647a.5.5,0,0,1-.494.494H8.4a.5.5,0,0,1-.494-.494ZM2.636,11.037a.5.5,0,0,1,.494-.494H4.777a.5.5,0,0,1,.494.494v1.647a.5.5,0,0,1-.494.494H3.13a.5.5,0,0,1-.494-.494Zm0,5.271a.5.5,0,0,1,.494-.494H4.777a.5.5,0,0,1,.494.494v1.647a.5.5,0,0,1-.494.494H3.13a.5.5,0,0,1-.494-.494ZM16.472,2.636H14.5V.659A.661.661,0,0,0,13.837,0H12.519a.661.661,0,0,0-.659.659V2.636H6.589V.659A.661.661,0,0,0,5.93,0H4.612a.661.661,0,0,0-.659.659V2.636H1.977A1.977,1.977,0,0,0,0,4.612V6.589H18.449V4.612A1.977,1.977,0,0,0,16.472,2.636Z" fill="#483191"/>
</svg>
