<svg xmlns="http://www.w3.org/2000/svg" width="14.925" height="14.178" viewBox="0 0 14.925 14.178">
  <path id="avlSeatLogo" data-name="Icon material-airline-seat-recline-extra" d="M5.5,5.717a1.495,1.495,0,1,1,2.082-.366A1.5,1.5,0,0,1,5.5,5.717Zm7.948,9.97H8.172a2.232,2.232,0,0,1-2.209-1.9l-1.47-7.06H3l1.485,7.283a3.739,3.739,0,0,0,3.694,3.164h5.269Zm.172-2.985H9.977l-.769-3.06a5.774,5.774,0,0,0,3.843.91V8.963a4.547,4.547,0,0,1-3.5-.933L8.328,7.082A1.688,1.688,0,0,0,7.761,6.8a1.649,1.649,0,0,0-.739-.045H7.007A1.692,1.692,0,0,0,5.634,8.7L6.642,13.12a2.245,2.245,0,0,0,2.2,1.821h5.112l2.851,2.239,1.119-1.119L13.619,12.7Z" transform="translate(-3 -3.001)" fill="#d2c7f0"/>
</svg>
