<svg xmlns="http://www.w3.org/2000/svg" width="15.313" height="17.5" viewBox="0 0 15.313 17.5">
  <path id="Icon_awesome-calendar-alt" data-name="Icon awesome-calendar-alt" d="M0,15.859A1.641,1.641,0,0,0,1.641,17.5H13.672a1.641,1.641,0,0,0,1.641-1.641v-9.3H0Zm10.938-6.7a.411.411,0,0,1,.41-.41h1.367a.411.411,0,0,1,.41.41v1.367a.411.411,0,0,1-.41.41H11.348a.411.411,0,0,1-.41-.41Zm0,4.375a.411.411,0,0,1,.41-.41h1.367a.411.411,0,0,1,.41.41V14.9a.411.411,0,0,1-.41.41H11.348a.411.411,0,0,1-.41-.41ZM6.563,9.16a.411.411,0,0,1,.41-.41H8.34a.411.411,0,0,1,.41.41v1.367a.411.411,0,0,1-.41.41H6.973a.411.411,0,0,1-.41-.41Zm0,4.375a.411.411,0,0,1,.41-.41H8.34a.411.411,0,0,1,.41.41V14.9a.411.411,0,0,1-.41.41H6.973a.411.411,0,0,1-.41-.41ZM2.188,9.16a.411.411,0,0,1,.41-.41H3.965a.411.411,0,0,1,.41.41v1.367a.411.411,0,0,1-.41.41H2.6a.411.411,0,0,1-.41-.41Zm0,4.375a.411.411,0,0,1,.41-.41H3.965a.411.411,0,0,1,.41.41V14.9a.411.411,0,0,1-.41.41H2.6a.411.411,0,0,1-.41-.41ZM13.672,2.188H12.031V.547A.548.548,0,0,0,11.484,0H10.391a.548.548,0,0,0-.547.547V2.188H5.469V.547A.548.548,0,0,0,4.922,0H3.828a.548.548,0,0,0-.547.547V2.188H1.641A1.641,1.641,0,0,0,0,3.828V5.469H15.313V3.828A1.641,1.641,0,0,0,13.672,2.188Z" fill="#d2c7f0"/>
</svg>
