<svg xmlns="http://www.w3.org/2000/svg" width="6.798" height="9.517" viewBox="0 0 6.798 9.517">
  <path id="Icon_awesome-rupee-sign" data-name="Icon awesome-rupee-sign" d="M6.543,3.61A.255.255,0,0,0,6.8,3.355V2.5a.255.255,0,0,0-.255-.255H.255A.255.255,0,0,0,0,2.5v.951a.255.255,0,0,0,.255.255H2.067a1.533,1.533,0,0,1,1.3.579H.255A.255.255,0,0,0,0,4.544v.85a.255.255,0,0,0,.255.255H3.627A1.468,1.468,0,0,1,2.039,6.894H.255A.255.255,0,0,0,0,7.149V8.276a.255.255,0,0,0,.082.187L3.588,11.7a.255.255,0,0,0,.173.068H5.515a.255.255,0,0,0,.173-.442L2.483,8.366A2.91,2.91,0,0,0,5.421,5.649H6.543A.255.255,0,0,0,6.8,5.394v-.85a.255.255,0,0,0-.255-.255H5.3a2.91,2.91,0,0,0-.3-.68Z" transform="translate(0 -2.25)" fill="#d2c7f0"/>
</svg>
